<?xml version="1.0" encoding="UTF-8"?><svg id="Layer_1" xmlns="http://www.w3.org/2000/svg" viewBox="0 0 64 64.000000000000909"><defs><style>.cls-1{fill:#9ca4a4;}.cls-2{fill:#aaacad;}.cls-3{fill:#d3d6d9;}.cls-4{fill:#2a6bb2;}.cls-5{fill:#2878ce;}.cls-6{fill:#393944;}.cls-7{fill:#4b4c58;}.cls-8{isolation:isolate;opacity:.200000002980232;}</style></defs><path class="cls-5" d="M16.836410651490951,32.501737794475048c0-.871505109526879,.706401356642345-1.577906466166496,1.577746791359459-1.577906466166496h1.577746791363097c4.034663083097257-.015009432079751,7.297458137714784-3.289859934808192,7.297458137714784-7.324602855311241V9.672152087748145c0-.336434823332638-.05381041075816-.659377125286483-.098679032191285-.984315362344205-.218594814019525-1.579982238693447-.925794544709788-3.032144792488907-2.070822602685439-4.340919367467905-1.272288881038548-1.272209043638213-2.884206081607772-2.03353853470071-4.82649046275219-2.146428624923828h-2.463303284114772c-4.700187688542428,0-8.48847254078828,3.788364689649825-8.48847254078828,8.488632215595317v24.834542450552362c0,4.268985865850482,3.128189190319972,7.775364842156705,7.223209351359401,8.384843589512457,.18570180329516-.431601009724545,.271606850735225-.900725599638463,.271606850735225-1.37535897048474v-10.031410223712555Z"/><path class="cls-2" d="M46.130222490233791,2.200488733012207H20.293370274299377c1.942284381144418,.112890090223118,3.554201581713642,.874219581285615,4.82649046275219,2.146428624923828,1.145028057975651,1.308774574978997,1.852227788665914,2.760937128774458,2.070822602685439,4.340919367467905,.044868621433125,.324938237057722,.098679032191285,.647880539011567,.098679032191285,.984315362344205v13.927076385249165c0,4.034742920503049-3.262795054617527,7.30959342323149-7.297458137714784,7.324602855311241h-1.577746791363097c-.871345434717114,0-1.577746791359459,.706401356639617-1.577746791359459,1.577906466166496v10.031410223712555c0,.474633370846277-.085905047440065,.943757960760195-.271606850735225,1.37535897048474,.413717431074474,.061634476414838,.833981529325683,.103788626091045,1.265263189428879,.103788626091045h28.300155500049186c.431441334912961,0,.851705433167808-.042154149676207,1.265582539050229-.103788626091045,4.094860486231482-.609478747355752,7.223209351357582-4.115937561069586,7.223209351357582-8.384843589512457V10.689120948607524c0-4.700267525945492-3.78844452705016-8.488632215595317-8.488791890407811-8.488632215595317Z"/><path class="cls-3" d="M46.130318152199834,4.022630179820226c3.676078933338431,0,6.666632649012172,2.990553715665556,6.666632649012172,6.666465827495813v24.83455231113021c0,3.325253284552673-2.384435539754122,6.093600740498005-5.66992969625062,6.582610211964493-.383911916193028,.057219780097512-.700650368484276,.083911222704046-.996702952761552,.083911222704046H17.830048839785377c-.162817799916411,0-.323188884257434-.008285468646136-.482002967781227-.022020440152119-.173271948274305-.01501393646322-.344764467034111-.036589519242625-.514922413668501-.061946389721925-3.285049299121965-.488898257126493-5.669262410182455-3.257245713068187-5.669262410182455-6.582554604794495V10.689096007316039c0-3.675912111830257,2.99033128697647-6.666465827495813,6.666187791632183-6.666465827495813h28.300269312414457m0-1.822135815450565H17.830048839785377c-4.700140614783777,0-8.488323607084567,3.788349813816239-8.488323607084567,8.488601642946378v24.83455231113021c0,4.268962602303873,3.128014645100848,7.77538405355881,7.223149227411341,8.384838659801972,.206858680224286,.030806373344603,.415274361263073,.056774922719342,.625914329181796,.075014075167928,.210862396614175,.018239152452225,.423504222734664,.028804515151933,.63926005049143,.028804515151933h28.300269312414457c.431289226828085,0,.851679447920105-.042150236457019,1.26539680836504-.103818590319861,4.09491215361777-.609454606243162,7.223371656104064-4.115931664671734,7.223371656104064-8.384838659801972V10.689096007316039c0-4.700251829130139-3.788627849688055-8.488601642946378-8.488768464469103-8.488601642946378h0Z"/><path class="cls-2" d="M59.234143425199363,52.773287347309633l-.176385949907854-.571641729215116c-.972903083104029-2.665919044933617-4.929242163845629-4.656878234884061-9.709901963828088-4.660881951282136H14.636968970396083c-5.185702441583999,.002001858198128-8.571289507866823,1.94847531047526-9.901635493243703,5.234636753033556-.049824026204988,.123003064691147-.09119576224748,.251344417905784-.135236642551718,.378128770298645l-.628138616069918,2.035278106121041-.000222428688176,.000556071718165c-.729121240605309,2.363471635868336,.909510906906689,4.493337541736764,4.580251551730726,4.80384799075h25.036573167381903c3.091758768894579-.430510726409921,3.097764343478048-4.652096018084194,3.097764343478048-4.652096018084194v-1.463691984077741c0-.608453677143189,.82988143646071-1.102022936725916,1.853720689206966-1.102022936725916h20.694765169628226l-.000667286069074-.002113072536304Z"/><path class="cls-5" d="M59.992625252682046,55.23073510402628l-.02580172785747-.083077115121341-.732012813556139-2.372257569059002h-20.694765169628226c-.639927336553228,0-1.204006490364918,.192845672851035-1.53720466559389,.486006684175663-.199740962198121,.175829878189688-.316516023613076,.387915632583827-.316516023613076,.616016252550253v1.463691984077741s-.006228003274373,4.221863327531537-3.098209200856218,4.652096018084194h21.813581472326405c3.649165062048269-.308564197994201,5.28824206693389-2.41551994895417,4.590928128778614-4.762476254707508Z"/><path class="cls-1" d="M55.401697123903432,59.993211358733788H8.551987341573295c-3.197634824576198-.270473285105254-4.85161455159232-1.921839475029628-4.743291780334403-3.905124875231195-.12478249419928,2.607698335739769,1.531199091010421,5.382607437999468,4.743291780334403,5.711913111186732H55.401697123903432c3.170498524592404-.324968313767386,4.82136424996861-3.07941397668219,4.743069351645318-5.662200299324468,.078294898323293,1.961098138533998-1.572570827052914,3.587329886666339-4.743069351645318,3.855412063368931Z"/><path class="cls-6" d="M55.401697123903432,59.993211358733788H8.551987341573295c-3.197634824576198-.270473285105254-4.85161455159232-1.921839475029628-4.743291780334403-3.905124875231195-.12478249419928,2.607698335739769,1.531199091010421,5.382607437999468,4.743291780334403,5.711913111186732H55.401697123903432c3.170498524592404-.324968313767386,4.82136424996861-3.07941397668219,4.743069351645318-5.662200299324468,.078294898323293,1.961098138533998-1.572570827052914,3.587329886666339-4.743069351645318,3.855412063368931Z"/><path class="cls-4" d="M37.597392760157163,55.342394305612288v-1.391402660345193c.095644336017358-.089193904050262,.419278077653871-.264523317695421,.942652781483048-.264523317695421h20.975915031773184l-.281149862144957-.911067907725737h-20.694765169628226c-.146580505663223,0-.287600294110234,.012678435245107-.424393937482819,.031807302440939-.042928736866088,.006005574590745-.083410758157697,.015347579503214-.125227351574722,.023076976425727-.092530334381081,.017182616178616-.182391524502236,.037534841167144-.268026569538051,.062724890129175-.04248387948428,.012456006552384-.083855615526772,.025857335031105-.12433763682202,.040203985432527-.082298614706815,.029082551009196-.159258940902873,.062224425581007-.232660408073571,.098202265933651-.032252159822747,.01590365121956-.066283749152717,.030417123141888-.096756479457326,.047544132146868-.098535908966369,.055384743409377-.18973167121294,.115496096454081-.265802282645382,.182447131666777v.000055607169998c-.088526617990283,.077850040945123-.153475795003033,.164986479629079-.206413822847026,.255292527124766-.013345721308724,.022409690356653-.024912013108406,.045208630916022-.035588590151747,.06828560734175-.043596022926067,.093586870651052-.074513610614304,.190621385965642-.074513610614304,.29238251091374v1.463691984077741s0,.06595010611818-.006228003274373,.18222470298133c-.006005574590745,.110269022279681-.018016723764958,.268415819738948-.040037163915258,.455811989722861-.00289157295083,.024300334209329-.006450431961639,.04949038317136-.009564433599735,.07484725365066-.155255224508437,1.222023214120782-.750696823384715,3.620193725380886-3.041934742688682,3.939212071729344h2.134425693975572c1.431995895982254-1.233700720262277,1.872627127720989-3.383195957876524,1.874406557226393-4.6508170531215Z"/><path class="cls-7" d="M46.130318152199834,4.022624548463682H17.830048839785377c-3.675856504655712,0-6.666187791632183,2.990553715664646-6.666187791632183,6.666465827497632v24.834552311132029c0,3.325308891722671,2.38421311106049,6.093656347669821,5.669262410182455,6.582554604790857,.17015794663439,.025356870482938,.341650465394196,.046932453255067,.514922413668501,.061946389723744,.158814083523794,.013734971509621,.319185167864816,.022020440153938,.482002967781227,.022020440153938h28.300269312414457c.296052584277277,0,.612791036568524-.026691442610172,.996702952761552-.083911222704046,3.285494156496497-.489009471468307,5.66992969625062-3.25735692741182,5.66992969625062-6.582610211964493V10.689090375961314c0-3.675912111832986-2.990553715673741-6.666465827497632-6.666632649012172-6.666465827497632Zm5.756232027350052,14.648208096729832v16.712735575375518c0,2.950182908718489-2.115296826776103,5.406296093307901-5.030002359693754,5.840087642880462-.345876610474079,.05160345571494-.627471330000844,.075625754059729-.8857110372428,.075625754059729H17.989752638062782c-.141464645827,0-.280482576083159-.007340146714341-.418388362896621-.01924008154856-.156589796640219-.013568149992352-.311400163772305-.033253088915444-.467989960414343-.056441279684805-2.914038246854943-.43368033522529-5.029112644941051-2.889793519812883-5.029112644941051-5.840032035706827V10.829164842485625c0-3.26191671552624,2.653574252728504-5.915657789769284,5.915490968252016-5.915657789769284h27.98108414455055c3.261916715524421,0,5.915713396936553,2.653741074243044,5.915713396936553,5.915657789769284v7.841667802707889Z"/><path class="cls-8" d="M27.190674774077706,8.687814135323606c.0449378578287,.324997007530328,.09862984380743,.647878434088852,.09862984380743,.98432875927756v13.927088374220148c0,4.034704712757048-3.262809463227313,7.309624053258631-7.297441224920476,7.324579022182661h-1.577639794565584c-.871473457224056,0-1.57778569670154,.706458141616167-1.57778569670154,1.577931598839314v8.669796714395488c.089000302844397,.017362354165016,.176395682197835,.038591114924202,.267000908538648,.052014111419339,.156552991730678,.023198439594125,.311355157828984,.042895227928966,.467908149558752,.056464126555511,.137877518345704,.011963975141043,.276922253777229,.019259081929704,.418447325519082,.019259081929704h1.237104209572863v-7.985005039945463h.764964898077778c5.345854256260282-.019769739405092,9.68790181811346-4.377939487266303,9.68790181811346-9.715039615376554V9.672142894601166c0-.458424510730765-.057193637236196-.860895552377769-.103152810015672-1.184360587479205l-.017945962708836-.127372564566031c-.166620239097028-1.204859837559525-.553406801143865-2.356392444477933-1.144748157601498-3.446937958628951h-2.835608009565476c.875121010616567,1.157733447691498,1.42488025836974,2.418619705403216,1.612364502891069,3.774342351396626Z"/><path class="cls-3" d="M51.866376238262092,57.979925785907653l.000000442874807,.000001879556294c.099993786338018,.42437222756962,.478732811770897,.724241748384884,.914726555813104,.724241748384884h1.654605767416797c.628929103846531,0,1.080361291640656-.60578369594441,.900549161326126-1.208460570767784l-.000000560768967-.000001879559932c-.118803090901565-.398192688220661-.485011447806755-.671092472173768-.900549161327945-.671092472173768h-1.654605649520818c-.606136410457111,0-1.053742024594612,.56533159362516-.914726555813104,1.155311294560306Z"/><path class="cls-3" d="M48.122033812922382,56.824614491347347h1.68838512975708c.43599374403675,0,.814732769478724,.299869520815264,.914726555809466,.724241748384884l.000000442874807,.000001879556294c.139015468792422,.589979700935146-.308590145348717,1.155311294560306-.914726555800371,1.155311294560306h-1.688385231222128c-.454239283173592,0-.843462223903771-.324890586081892-.924645487833914-.771816311495058l-.000000341420673-.000001879556294c-.104779827510356-.576828254361317,.338377931780997-1.107736731450132,.924645487835733-1.107736731450132Z"/><path class="cls-3" d="M46.107758706137247,57.604279873498854l.000000324978828,.000001879556294c.099332026409684,.574507943918434-.343004968317473,1.099887660793684-.92603689634052,1.099887660793684h-1.701648186382954c-.479195822643305,0-.881648564449279-.360549143362732-.93412457445811-.83686301553098l-.000000207071935-.000001879554475c-.061299392933506-.556401891219139,.374356157948569-1.042690027416029,.93412457445811-1.042690027416029h1.701648068479699c.457247945078052,0,.848134876270706,.329102446989054,.926036896336882,.779665382151506Z"/></svg>