<svg width="64" height="64" viewBox="0 0 64 64" fill="none" xmlns="http://www.w3.org/2000/svg">
<mask id="mask0_2691_1010" style="mask-type:luminance" maskUnits="userSpaceOnUse" x="20" y="33" width="24" height="26">
<path d="M20.4288 33.317H43.5717V59H20.4288V33.317Z" fill="white"/>
</mask>
<g mask="url(#mask0_2691_1010)">
<mask id="mask1_2691_1010" style="mask-type:luminance" maskUnits="userSpaceOnUse" x="20" y="25" width="24" height="35">
<path d="M20.0115 25.7849H43.9881V59.4038H20.0115V25.7849ZM38.1672 46.7629C38.1672 43.4548 35.4099 40.7692 32.0073 40.7692C28.6072 40.7692 25.85 43.4548 25.85 46.7629C25.85 50.0736 28.6072 52.7566 32.0073 52.7566C35.4099 52.7566 38.1672 50.0736 38.1672 46.7629Z" fill="white"/>
</mask>
<g mask="url(#mask1_2691_1010)">
<path d="M22.0754 33.8288H41.9236C42.8352 33.8288 43.571 34.5774 43.571 35.5034V57.3252C43.571 58.2539 42.8352 58.9999 41.9236 58.9999H22.0754C21.1639 58.9999 20.4281 58.2539 20.4281 57.3252V35.5034C20.4281 34.5774 21.1639 33.8288 22.0754 33.8288Z" fill="url(#paint0_linear_2691_1010)"/>
</g>
</g>
<mask id="mask2_2691_1010" style="mask-type:luminance" maskUnits="userSpaceOnUse" x="20" y="32" width="24" height="26">
<path d="M20.4288 32.1762H43.5717V57.8592H20.4288V32.1762Z" fill="white"/>
</mask>
<g mask="url(#mask2_2691_1010)">
<mask id="mask3_2691_1010" style="mask-type:luminance" maskUnits="userSpaceOnUse" x="20" y="25" width="24" height="34">
<path d="M20.0115 25.3029H43.9881V58.9218H20.0115V25.3029ZM38.1672 46.281C38.1672 42.9728 35.4099 40.2872 32.0073 40.2872C28.6072 40.2872 25.85 42.9728 25.85 46.281C25.85 49.5917 28.6072 52.2747 32.0073 52.2747C35.4099 52.2747 38.1672 49.5917 38.1672 46.281Z" fill="white"/>
</mask>
<g mask="url(#mask3_2691_1010)">
<path d="M22.0754 32.3666H41.9236C42.8352 32.3666 43.571 33.1126 43.571 34.0412V55.8604C43.571 56.7891 42.8352 57.5351 41.9236 57.5351H22.0754C21.1639 57.5351 20.4281 56.7891 20.4281 55.8604V34.0412C20.4281 33.1126 21.1639 32.3666 22.0754 32.3666Z" fill="#414141"/>
</g>
</g>
<path d="M58.9999 12.4482V47.8704C58.9999 50.4531 56.9583 52.5496 54.4421 52.5496H9.55763C7.04145 52.5496 4.99988 50.4531 4.99988 47.8704V12.4482C4.99988 9.86553 7.04145 7.76901 9.55763 7.76901H54.4421C56.9583 7.76901 58.9999 9.86553 58.9999 12.4482Z" fill="url(#paint1_linear_2691_1010)"/>
<path d="M59 9.67934V43.1542C59 45.7394 56.9584 47.8334 54.4422 47.8334H9.55776C7.04157 47.8334 5 45.7394 5 43.1542V9.67934C5 7.09664 7.04157 5.00012 9.55776 5.00012H54.4422C56.9584 5.00012 59 7.09664 59 9.67934Z" fill="url(#paint2_linear_2691_1010)"/>
<path d="M10.7503 7.4691H53.0911C54.9343 7.4691 56.4285 8.98946 56.4285 10.8614V41.9427C56.4285 43.8147 54.9343 45.335 53.0911 45.335H10.7503C8.90477 45.335 7.41061 43.8147 7.41061 41.9427V10.8614C7.41061 8.98946 8.90477 7.4691 10.7503 7.4691Z" fill="url(#paint3_linear_2691_1010)"/>
<mask id="mask4_2691_1010" style="mask-type:alpha" maskUnits="userSpaceOnUse" x="7" y="7" width="50" height="39">
<path d="M10.7503 7.4691H53.0911C54.9343 7.4691 56.4285 8.98946 56.4285 10.8614V41.9427C56.4285 43.8147 54.9343 45.335 53.0911 45.335H10.7503C8.90477 45.335 7.41061 43.8147 7.41061 41.9427V10.8614C7.41061 8.98946 8.90477 7.4691 10.7503 7.4691Z" fill="black"/>
</mask>
<g mask="url(#mask4_2691_1010)">
<ellipse opacity="0.2" cx="67.6785" cy="77.3215" rx="58.8214" ry="61.7143" fill="black"/>
<ellipse opacity="0.2" cx="76.3571" cy="83.5893" rx="58.8214" ry="61.7143" fill="black"/>
</g>
<defs>
<linearGradient id="paint0_linear_2691_1010" x1="20.4852" y1="58.5806" x2="43.4173" y2="58.5806" gradientUnits="userSpaceOnUse">
<stop stop-color="#9A9996"/>
<stop offset="0.0414257" stop-color="#C0BFBC"/>
<stop offset="0.0815191" stop-color="#9A9996"/>
<stop offset="0.899024" stop-color="#77767B"/>
<stop offset="0.952865" stop-color="#C0BFBC"/>
<stop offset="1" stop-color="#77767B"/>
</linearGradient>
<linearGradient id="paint1_linear_2691_1010" x1="5.13322" y1="51.8038" x2="58.6412" y2="51.8038" gradientUnits="userSpaceOnUse">
<stop stop-color="#9A9996"/>
<stop offset="0.0414257" stop-color="#C0BFBC"/>
<stop offset="0.0815191" stop-color="#9A9996"/>
<stop offset="0.899024" stop-color="#77767B"/>
<stop offset="0.952865" stop-color="#C0BFBC"/>
<stop offset="1" stop-color="#77767B"/>
</linearGradient>
<linearGradient id="paint2_linear_2691_1010" x1="76.5982" y1="4.75182" x2="-8.46385" y2="44.7418" gradientUnits="userSpaceOnUse">
<stop stop-color="#B8B8B8"/>
<stop offset="1" stop-color="white"/>
</linearGradient>
<linearGradient id="paint3_linear_2691_1010" x1="12.5" y1="8.50001" x2="54" y2="45" gradientUnits="userSpaceOnUse">
<stop stop-color="#3B919C"/>
<stop offset="1" stop-color="#122A27"/>
</linearGradient>
</defs>
</svg>
