<svg width="64" height="64" viewBox="0 0 64 64" fill="none" xmlns="http://www.w3.org/2000/svg">
<mask id="mask0_2689_60613" style="mask-type:luminance" maskUnits="userSpaceOnUse" x="20" y="33" width="24" height="26">
<path d="M20.4288 33.317H43.5717V59H20.4288V33.317Z" fill="white"/>
</mask>
<g mask="url(#mask0_2689_60613)">
<mask id="mask1_2689_60613" style="mask-type:luminance" maskUnits="userSpaceOnUse" x="20" y="25" width="24" height="35">
<path d="M20.0116 25.7849H43.9882V59.4038H20.0116V25.7849ZM38.1673 46.763C38.1673 43.4548 35.41 40.7692 32.0074 40.7692C28.6073 40.7692 25.85 43.4548 25.85 46.763C25.85 50.0736 28.6073 52.7567 32.0074 52.7567C35.41 52.7567 38.1673 50.0736 38.1673 46.763Z" fill="white"/>
</mask>
<g mask="url(#mask1_2689_60613)">
<path d="M22.0755 33.8289H41.9238C42.8353 33.8289 43.5711 34.5774 43.5711 35.5035V57.3253C43.5711 58.2539 42.8353 58.9999 41.9238 58.9999H22.0755C21.164 58.9999 20.4282 58.2539 20.4282 57.3253V35.5035C20.4282 34.5774 21.164 33.8289 22.0755 33.8289Z" fill="url(#paint0_linear_2689_60613)"/>
</g>
</g>
<mask id="mask2_2689_60613" style="mask-type:luminance" maskUnits="userSpaceOnUse" x="20" y="32" width="24" height="26">
<path d="M20.4288 32.1761H43.5717V57.8591H20.4288V32.1761Z" fill="white"/>
</mask>
<g mask="url(#mask2_2689_60613)">
<mask id="mask3_2689_60613" style="mask-type:luminance" maskUnits="userSpaceOnUse" x="20" y="25" width="24" height="34">
<path d="M20.0116 25.3029H43.9882V58.9217H20.0116V25.3029ZM38.1673 46.2809C38.1673 42.9728 35.41 40.2872 32.0074 40.2872C28.6073 40.2872 25.85 42.9728 25.85 46.2809C25.85 49.5916 28.6073 52.2746 32.0074 52.2746C35.41 52.2746 38.1673 49.5916 38.1673 46.2809Z" fill="white"/>
</mask>
<g mask="url(#mask3_2689_60613)">
<path d="M22.0755 32.3665H41.9238C42.8353 32.3665 43.5711 33.1125 43.5711 34.0411V55.8603C43.5711 56.789 42.8353 57.535 41.9238 57.535H22.0755C21.164 57.535 20.4282 56.789 20.4282 55.8603V34.0411C20.4282 33.1125 21.164 32.3665 22.0755 32.3665Z" fill="#414141"/>
</g>
</g>
<path d="M58.9999 12.4483V47.8704C58.9999 50.4531 56.9583 52.5496 54.4421 52.5496H9.55763C7.04145 52.5496 4.99988 50.4531 4.99988 47.8704V12.4483C4.99988 9.86556 7.04145 7.76904 9.55763 7.76904H54.4421C56.9583 7.76904 58.9999 9.86556 58.9999 12.4483Z" fill="url(#paint1_linear_2689_60613)"/>
<path d="M59 9.67934V43.1542C59 45.7394 56.9584 47.8334 54.4422 47.8334H9.55776C7.04157 47.8334 5 45.7394 5 43.1542V9.67934C5 7.09664 7.04157 5.00012 9.55776 5.00012H54.4422C56.9584 5.00012 59 7.09664 59 9.67934Z" fill="url(#paint2_linear_2689_60613)"/>
<path d="M10.7504 7.46912H53.0912C54.9343 7.46912 56.4285 8.98948 56.4285 10.8614V41.9427C56.4285 43.8147 54.9343 45.3351 53.0912 45.3351H10.7504C8.9048 45.3351 7.41064 43.8147 7.41064 41.9427V10.8614C7.41064 8.98948 8.9048 7.46912 10.7504 7.46912Z" fill="black"/>
<mask id="mask4_2689_60613" style="mask-type:alpha" maskUnits="userSpaceOnUse" x="7" y="7" width="50" height="39">
<path d="M10.7504 7.46912H53.0912C54.9343 7.46912 56.4285 8.98948 56.4285 10.8614V41.9427C56.4285 43.8147 54.9343 45.3351 53.0912 45.3351H10.7504C8.9048 45.3351 7.41064 43.8147 7.41064 41.9427V10.8614C7.41064 8.98948 8.9048 7.46912 10.7504 7.46912Z" fill="black"/>
</mask>
<g mask="url(#mask4_2689_60613)">
<ellipse cx="67.6785" cy="77.3215" rx="58.8214" ry="61.7143" fill="#625F5F" fill-opacity="0.35"/>
<ellipse cx="76.3571" cy="83.5893" rx="58.8214" ry="61.7143" fill="#625F5F" fill-opacity="0.35"/>
</g>
<defs>
<linearGradient id="paint0_linear_2689_60613" x1="20.4854" y1="58.5807" x2="43.4174" y2="58.5807" gradientUnits="userSpaceOnUse">
<stop stop-color="#9A9996"/>
<stop offset="0.0414257" stop-color="#C0BFBC"/>
<stop offset="0.0815191" stop-color="#9A9996"/>
<stop offset="0.899024" stop-color="#77767B"/>
<stop offset="0.952865" stop-color="#C0BFBC"/>
<stop offset="1" stop-color="#77767B"/>
</linearGradient>
<linearGradient id="paint1_linear_2689_60613" x1="5.13322" y1="51.8038" x2="58.6412" y2="51.8038" gradientUnits="userSpaceOnUse">
<stop stop-color="#9A9996"/>
<stop offset="0.0414257" stop-color="#C0BFBC"/>
<stop offset="0.0815191" stop-color="#9A9996"/>
<stop offset="0.899024" stop-color="#77767B"/>
<stop offset="0.952865" stop-color="#C0BFBC"/>
<stop offset="1" stop-color="#77767B"/>
</linearGradient>
<linearGradient id="paint2_linear_2689_60613" x1="76.5982" y1="4.75182" x2="-8.46385" y2="44.7418" gradientUnits="userSpaceOnUse">
<stop stop-color="#B8B8B8"/>
<stop offset="1" stop-color="white"/>
</linearGradient>
</defs>
</svg>
